<svg id="Capa_1" data-name="Capa 1" xmlns="http://www.w3.org/2000/svg" viewBox="0 0 238.93 50.41"><defs><style>.cls-1{fill:#fff;}</style></defs><title>royal-class</title><path class="cls-1" d="M11.11,11.28a17.23,17.23,0,0,1,2.05-.08c6.33,0,8.06,3,8.06,6.77,0,4.93-3,6.87-7.56,6.87a19.92,19.92,0,0,1-2.55-.08Zm0,14.26c.66,0,1.2.08,2.1.08,1.11,0,1.76,0,2.79-.08a31.2,31.2,0,0,1,4.24,3.65L23,31.91c3.65,3.65,5.5,5.21,12.69,4.88v-.74c-3.16-.19-5.67-1.72-8.09-4.14L24.3,28.66a50.77,50.77,0,0,0-4.68-4.28c3.36-1,5.46-3.57,5.46-6.65,0-4.2-3.41-7.31-11-7.31-2.67,0-3.49,0-5.18.12s-4.19.24-5.18.24v.79h.91c2.38,0,3.08.73,3.08,3.28v17.3c0,2.76-.86,3.41-3.29,3.41h-.7v.79H15.34v-.79H14.4c-2.31,0-3.29-.62-3.29-3.08Z"/><path class="cls-1" d="M36.71,26.93c0-3.53,2.51-6.33,5.22-6.33,3.45,0,6.33,4,6.33,8.67,0,4.11-2.76,6.59-5.18,6.59C39.55,35.86,36.71,31.91,36.71,26.93Zm-3.08,1.4c0,4.81,3.9,8.5,9,8.5a8.61,8.61,0,1,0-.11-17.21A8.63,8.63,0,0,0,33.63,28.33Z"/><path class="cls-1" d="M63.3,24.63c1.23-3.13.45-3.74-2-3.82v-.74h6.83v.74c-1.69.2-2.63,1.36-3.42,3.29l-7,17.42c-1.24,3-2.18,4.4-3.62,4.4a1.53,1.53,0,0,1-1.68-1.44c0-1.69,2.39-1.28,3.41-2.3a8.47,8.47,0,0,0,1.4-2.34l1.23-3.09L52.12,23.23c-.78-1.68-1.52-2.38-3.25-2.42v-.74h8.26v.74c-2.5,0-2.79.78-2,2.51l4.65,10Z"/><path class="cls-1" d="M77.11,33.59c-2.3,1.6-2.79,1.81-3.45,1.81A2.4,2.4,0,0,1,71.24,33c0-1.68.94-2.09,3.45-3.12a19.6,19.6,0,0,0,2.42-1.15Zm-5.34-10a1.71,1.71,0,0,1-.2-.77,2.57,2.57,0,0,1,2.55-2A3.11,3.11,0,0,1,76.41,22a3.39,3.39,0,0,1,.7,2.63v3.24a13.72,13.72,0,0,1-3.65,1.57c-2.64.65-4.85,1.52-4.85,4,0,2,1.44,3.36,3.82,3.36,1.11,0,1.93-.16,4.77-2.5,0,.66.2,2.5,1.88,2.5.7,0,1.86-.45,4.07-2.26L83,34a2.81,2.81,0,0,1-2,.9c-1.08,0-1.08-.74-1.08-4V25.32c0-2.13,0-2.66-.61-3.53a5.53,5.53,0,0,0-4.32-2.17c-2.66,0-6.08,3.33-6.08,4.76A1.65,1.65,0,0,0,69,25Z"/><path class="cls-1" d="M89.81,33.1c0,1.68.78,2.46,2.39,2.46h.7v.79H83.65v-.79c2.63,0,3.41-.78,3.41-2.75V13c0-1.15-.12-1.52-1.28-1.64l-1.84-.21v-.69L89.2,8.73h.61Z"/><path class="cls-1" d="M120.53,17.5a9.58,9.58,0,0,0-9.37-6.32c-6.87,0-11.14,5-11.14,11.87C100,30.49,105.37,36,111.61,36c3.25,0,7.23-1.11,10-6.09h.77a28.28,28.28,0,0,1-2.62,6c-2.63-.38-4.44,1.1-9.29,1.1-8.34,0-14.34-5.5-14.34-13.11,0-8,6.16-13.72,14.75-13.72,5.18,0,7.4,1.64,8.67,1.64.45,0,.66-.12.74-.24h.62l.37,5.95Z"/><path class="cls-1" d="M130.39,33.08c0,1.69.78,2.46,2.38,2.46h.71v.79h-9.25v-.79c2.62,0,3.4-.77,3.4-2.75V12.94c0-1.15-.12-1.52-1.27-1.64l-1.85-.2v-.7l5.26-1.69h.62Z"/><path class="cls-1" d="M143.82,33.57c-2.3,1.6-2.79,1.81-3.45,1.81A2.4,2.4,0,0,1,138,33c0-1.69,1-2.1,3.45-3.13a18.31,18.31,0,0,0,2.42-1.15Zm-5.34-10a1.62,1.62,0,0,1-.2-.78,2.56,2.56,0,0,1,2.54-2,3.1,3.1,0,0,1,2.3,1.18,3.39,3.39,0,0,1,.7,2.63v3.25a13.49,13.49,0,0,1-3.65,1.56c-2.63.66-4.85,1.52-4.85,4,0,2,1.44,3.37,3.82,3.37,1.11,0,1.93-.17,4.77-2.51,0,.66.2,2.51,1.89,2.51.69,0,1.85-.45,4.06-2.26l-.2-.62a2.83,2.83,0,0,1-2,.91c-1.07,0-1.07-.75-1.07-4V25.31c0-2.14,0-2.67-.62-3.53a5.51,5.51,0,0,0-4.31-2.18c-2.67,0-6.08,3.33-6.08,4.77a1.42,1.42,0,0,0,.12.57Z"/><path class="cls-1" d="M152.08,32.17c.5,2.47,2.06,3.87,3.91,3.87a2.82,2.82,0,0,0,2.92-2.72c0-.86-.21-1.39-1.32-2.5-2.92-2.92-6.17-3.21-6.17-6.62,0-2.71,2.14-4.6,5.27-4.6a9.06,9.06,0,0,1,3.29.66l.08,3.74h-.7c-.29-2.1-1.64-3.41-3.29-3.41a2.37,2.37,0,0,0-2.51,2.29c0,3.63,7.65,4.24,7.65,9.25a4.82,4.82,0,0,1-5.1,4.69,4.72,4.72,0,0,1-1.8-.3,5.47,5.47,0,0,0-1.11-.24.87.87,0,0,0-.7.5h-.62l-.46-4.61Z"/><path class="cls-1" d="M164.49,32.17c.5,2.47,2,3.87,3.91,3.87a2.82,2.82,0,0,0,2.92-2.72c0-.86-.21-1.39-1.32-2.5-2.92-2.92-6.17-3.21-6.17-6.62,0-2.71,2.14-4.6,5.27-4.6a9,9,0,0,1,3.28.66l.09,3.74h-.7c-.29-2.1-1.65-3.41-3.29-3.41A2.37,2.37,0,0,0,166,22.88c0,3.63,7.65,4.24,7.65,9.25a5.19,5.19,0,0,1-6.91,4.39,5.26,5.26,0,0,0-1.1-.24.9.9,0,0,0-.71.5h-.61l-.46-4.61Z"/><path class="cls-1" d="M69.54,42.59a5.65,5.65,0,0,1,.61,0c.72,0,1.18.24,1.18.76s-.46.82-1.25.82a3.74,3.74,0,0,1-.54,0ZM68.9,46h.64V44.5a3.94,3.94,0,0,0,.52,0,2.45,2.45,0,0,0,1.54-.43,1,1,0,0,0,.39-.82.93.93,0,0,0-.45-.8,2.46,2.46,0,0,0-1.41-.33,9.32,9.32,0,0,0-1.23.08Z"/><path class="cls-1" d="M77.21,42.59a3.88,3.88,0,0,1,.64-.05c.69,0,1.16.22,1.16.72s-.44.73-1.14.73h-.66ZM76.57,46h.64V44.37h.62a.89.89,0,0,1,1,.75,3.65,3.65,0,0,0,.34.92h.66A7,7,0,0,1,79.45,45a1.05,1.05,0,0,0-.73-.78v0a1.08,1.08,0,0,0,.94-1,.86.86,0,0,0-.39-.72,2.48,2.48,0,0,0-1.46-.33,8.88,8.88,0,0,0-1.24.09Z"/><path class="cls-1" d="M84.94,42.18V46h-.66V42.18Z"/><path class="cls-1" d="M90.88,46l-1.64-3.86h.7l.79,1.9c.21.52.39,1,.53,1.44h0a12.86,12.86,0,0,1,.57-1.43l.85-1.91h.69L91.6,46Z"/><path class="cls-1" d="M98.05,44.44l.5-1.12a6.35,6.35,0,0,0,.23-.7h0c.07.23.15.45.25.71l.5,1.11Zm1.65.38.53,1.22h.69l-1.71-3.86h-.77L96.72,46h.67l.52-1.22Z"/><path class="cls-1" d="M105.74,42.61h-1.52v-.43h3.71v.43H106.4V46h-.66Z"/><path class="cls-1" d="M114.79,44.23h-1.94v1.39H115V46H112.2V42.18h2.71v.42h-2.06v1.22h1.94Z"/><path class="cls-1" d="M124.87,42.18h2.7v.42h-2v1.28h1.89v.41h-1.89V46h-.65Z"/><path class="cls-1" d="M132.2,42.18h.66v3.44H135V46h-2.8Z"/><path class="cls-1" d="M140.09,42.18V46h-.65V42.18Z"/><path class="cls-1" d="M148.76,45.86a5.52,5.52,0,0,1-1.55.22,3.06,3.06,0,0,1-1.87-.51,1.76,1.76,0,0,1-.7-1.44c0-1.15,1-2,2.71-2a4,4,0,0,1,1.26.18l-.17.41a3,3,0,0,0-1.1-.17c-1.22,0-2,.59-2,1.55s.76,1.56,1.94,1.56a2.56,2.56,0,0,0,.86-.11V44.41h-1V44h1.65Z"/><path class="cls-1" d="M154.11,42.18V43.8h2.42V42.18h.65V46h-.65V44.23h-2.42V46h-.66V42.18Z"/><path class="cls-1" d="M163,42.61h-1.53v-.43h3.71v.43h-1.54V46H163Z"/><path class="cls-1" d="M169.31,45.43a2.75,2.75,0,0,0,1.15.25c.67,0,1-.26,1-.65s-.26-.57-.94-.77-1.33-.56-1.33-1.09.65-1.05,1.62-1.05a3,3,0,0,1,1.11.19l-.18.41a2.22,2.22,0,0,0-.94-.19c-.69,0-.95.32-.95.58s.31.54,1,.74c.84.26,1.27.57,1.27,1.14s-.57,1.11-1.75,1.11a3.19,3.19,0,0,1-1.28-.25Z"/><path class="cls-1" d="M173.16,39.47H68.22V38.6H173.38a11.79,11.79,0,0,0,8-3c4.61-4.05,9.66-15.09,17.3-22,5-4.54,12.84-8.73,23.78-10.1l-.35.31c-6.69,1.65-12.08,3.21-16.89,8-6.58,6.5-11.25,17.49-16.46,22.21-4.81,4.35-8.52,5.79-13.37,5.49Z"/></svg>